<?xml version="1.0" encoding="iso-8859-1"?>
<!-- Generator: Adobe Illustrator 19.0.0, SVG Export Plug-In . SVG Version: 6.00 Build 0)  -->
<svg version="1.1" id="Layer_1" xmlns="http://www.w3.org/2000/svg" xmlns:xlink="http://www.w3.org/1999/xlink" x="0px" y="0px"
	 viewBox="0 0 491.6 491.6" style="enable-background:new 0 0 491.6 491.6;" xml:space="preserve">
<path style="fill:#27A2DB;" d="M379.4,171.675c-18.1-25-25.9-53.9-23.7-82.9c1.7-22.6,9-45.1,16.3-66.4c1.3-3.8,2.4-7.9,2.5-11.9
	c0.1-3.3-3.6-5.2-6.3-3.3c-2,1.4-4.1,2.6-6.3,3.5c-4.3,1.9-9.3,2.6-13.7,1.1c-7-2.4-11.6-10-18.9-11.5c-6-1.2-12,2.1-16.5,6.3
	s-8.1,9.3-13.1,12.8c-5.9,4.3-13.4,6-20.8,5.7c-3.3-0.1-6.7-0.7-9.4-2.7c-3.5-2.6-5.1-7.2-8.7-9.8c-5.8-4.3-14.2-1.5-20.4,2.1
	c-6.3,3.6-13,8.2-20.2,6.8c-3.2-0.6-5.8-2.2-8.1-4.4c-2.9-2.8-7.5-0.4-6.8,3.5c3.6,19.7,14,38.7,13.9,59l0.4,0.2c0.1,3,0.3,6,0.5,9
	c2.2,28.9-5.7,57.9-23.7,82.9c-46.3,64-77,148.6-77,190.3c0,65.4,75.4,129.6,168.4,129.6s164.5-55.1,164.5-132.4
	C452.5,299.475,425.7,235.675,379.4,171.675z"/>
<path style="fill:#3A556A;" d="M491.6,139.675c-48.6-41.1-136-35.2-136-35.2h-7.1H220.3c-0.6,12.6-3.1,25-7.5,37h135.7h14.7
	c67.6-2.2,110.6,27.2,110.6,27.2l-12.5-25.1L491.6,139.675z"/>
<path style="fill:#FFFFFF;" d="M283.6,399.775v-14.4c-18-1.8-34.1-9-48.4-21.5l14.4-17.1c11,9.6,22.4,15.3,34.1,17.1v-38.1
	c-14.8-3.5-25.7-8.2-32.6-14c-6.9-5.8-10.3-14.3-10.3-25.7c0-11.4,4-20.6,11.9-27.9c7.9-7.2,18.3-11.2,31-11.8v-9.8h12.6v10
	c14.4,1.1,28.1,6,41,14.8l-12.8,18.1c-8.7-6.2-18.1-10-28.2-11.4v37h0.6c15.1,3.5,26.2,8.3,33.3,14.4c7.1,6,10.6,14.8,10.6,26.3
	s-4.1,20.8-12.2,28.1c-8.1,7.2-18.9,11.2-32.3,11.8v14.1H283.6z M269.7,272.675c-3.3,3-5,6.6-5,11s1.3,7.9,3.9,10.4
	c2.6,2.6,7.6,5,15,7.4v-34.1C277.7,267.975,273.1,269.775,269.7,272.675z M311.2,359.075c3.7-3,5.5-6.8,5.5-11.4s-1.4-8.2-4.3-10.9
	c-2.9-2.7-8.3-5.2-16.1-7.6v35.4C302.5,363.875,307.5,362.075,311.2,359.075z"/>
<path style="fill:#F6C358;" d="M0,456.075c0,19.6,47.6,35.5,106.4,35.5s106.4-15.9,106.4-35.5v-37.3H0V456.075z"/>
<ellipse style="fill:#FCD462;" cx="106.4" cy="418.775" rx="106.4" ry="35.5"/>
<ellipse style="fill:#F6C358;" cx="106.4" cy="418.775" rx="92" ry="25.8"/>
<path style="fill:#DC8744;" d="M102.7,438.675v-3.5c-15.6-0.4-29.7-2.2-42.1-5.2l12.5-4.2c9.6,2.3,19.4,3.7,29.6,4.2v-9.3
	c-12.9-0.9-22.3-2-28.3-3.4s-9-3.5-9-6.3s3.4-5,10.3-6.8s15.9-2.7,26.9-2.9v-2.4h10.9v2.4c12.5,0.3,24.4,1.5,35.6,3.6l-11.1,4.4
	c-7.5-1.5-15.7-2.4-24.4-2.8v9h0.5c13.1,0.9,22.7,2,28.9,3.5s9.2,3.6,9.2,6.4s-3.5,5.1-10.6,6.8c-7.1,1.8-16.4,2.7-28,2.9v3.5h-10.9
	V438.675z M90.6,407.675c-2.9,0.7-4.4,1.6-4.4,2.7s1.1,1.9,3.4,2.5s6.6,1.2,13,1.8v-8.3C97.5,406.575,93.5,406.975,90.6,407.675z
	 M126.6,428.775c3.2-0.7,4.8-1.7,4.8-2.8c0-1.1-1.3-2-3.8-2.7s-7.2-1.3-14-1.8v8.6C119.1,429.975,123.4,429.475,126.6,428.775z"/>
<path style="fill:#F6C358;" d="M0,396.375c0,19.6,47.6,35.5,106.4,35.5s106.4-15.9,106.4-35.5v-37.3H0V396.375z"/>
<ellipse style="fill:#FCD462;" cx="106.4" cy="359.175" rx="106.4" ry="35.5"/>
<ellipse style="fill:#F6C358;" cx="106.4" cy="359.175" rx="92" ry="25.8"/>
<path style="fill:#DC8744;" d="M102.7,378.975v-3.5c-15.6-0.4-29.7-2.2-42.1-5.2l12.5-4.2c9.6,2.3,19.4,3.7,29.6,4.2v-9.3
	c-12.9-0.9-22.3-2-28.3-3.4s-9-3.5-9-6.3s3.4-5,10.3-6.8s15.9-2.7,26.9-2.9v-2.4h10.9v2.4c12.5,0.3,24.4,1.5,35.6,3.6l-11.1,4.4
	c-7.5-1.5-15.7-2.4-24.4-2.8v9h0.5c13.1,0.9,22.7,2,28.9,3.5s9.2,3.6,9.2,6.4s-3.5,5.1-10.6,6.8c-7.1,1.8-16.4,2.7-28,2.9v3.5h-10.9
	V378.975z M90.6,348.075c-2.9,0.7-4.4,1.6-4.4,2.7s1.1,1.9,3.4,2.5s6.6,1.2,13,1.8v-8.3C97.5,346.875,93.5,347.375,90.6,348.075z
	 M126.6,369.075c3.2-0.7,4.8-1.7,4.8-2.8c0-1.1-1.3-2-3.8-2.7s-7.2-1.3-14-1.8v8.6C119.1,370.275,123.4,369.775,126.6,369.075z"/>
<path style="fill:#F6C358;" d="M0,336.775c0,19.6,47.6,35.5,106.4,35.5s106.4-15.9,106.4-35.5v-37.3H0V336.775z"/>
<ellipse style="fill:#FCD462;" cx="106.4" cy="299.475" rx="106.4" ry="35.5"/>
<ellipse style="fill:#F6C358;" cx="106.4" cy="299.475" rx="92" ry="25.8"/>
<path style="fill:#DC8744;" d="M102.7,319.375v-3.5c-15.6-0.4-29.7-2.2-42.1-5.2l12.5-4.2c9.6,2.3,19.4,3.7,29.6,4.2v-9.3
	c-12.9-0.9-22.3-2-28.3-3.4s-9-3.5-9-6.3s3.4-5,10.3-6.8s15.9-2.7,26.9-2.9v-2.4h10.9v2.4c12.5,0.3,24.4,1.5,35.6,3.6l-11.1,4.4
	c-7.5-1.5-15.7-2.4-24.4-2.8v9h0.5c13.1,0.9,22.7,2,28.9,3.5s9.2,3.6,9.2,6.4s-3.5,5.1-10.6,6.8c-7.1,1.8-16.4,2.7-28,2.9v3.5h-10.9
	V319.375z M90.6,288.375c-2.9,0.7-4.4,1.6-4.4,2.7s1.1,1.9,3.4,2.5s6.6,1.2,13,1.8v-8.3C97.5,287.275,93.5,287.675,90.6,288.375z
	 M126.6,309.375c3.2-0.7,4.8-1.7,4.8-2.8c0-1.1-1.3-2-3.8-2.7s-7.2-1.3-14-1.8v8.6C119.1,310.575,123.4,310.175,126.6,309.375z"/>
<g>
</g>
<g>
</g>
<g>
</g>
<g>
</g>
<g>
</g>
<g>
</g>
<g>
</g>
<g>
</g>
<g>
</g>
<g>
</g>
<g>
</g>
<g>
</g>
<g>
</g>
<g>
</g>
<g>
</g>
</svg>
